<svg width="512" height="512" viewBox="0 0 512 512" fill="none" xmlns="http://www.w3.org/2000/svg" xmlns:xlink="http://www.w3.org/1999/xlink" class=""><rect id="r4" width="512" height="512" x="0" y="0" rx="128" fill="url(#r5)" stroke="#FFFFFF" stroke-width="0" stroke-opacity="100%" paint-order="stroke"></rect><clipPath id="clip"><use xlink:href="#r4"></use></clipPath><defs><linearGradient id="r5" gradientUnits="userSpaceOnUse" gradientTransform="rotate(45)" style="transform-origin: center center;"><stop stop-color="#8E2DE2"></stop><stop offset="1" stop-color="#4A00E0"></stop></linearGradient><radialGradient id="r6" cx="0" cy="0" r="1" gradientUnits="userSpaceOnUse" gradientTransform="translate(256) rotate(90) scale(512)"><stop stop-color="white"></stop><stop offset="1" stop-color="white" stop-opacity="0"></stop></radialGradient></defs><svg viewBox="0 0 16 16" fill="none" xmlns="http://www.w3.org/2000/svg" width="352" height="352" x="80" y="80" alignment-baseline="middle" style="color: rgb(255, 255, 255);"><path d="M4.75 14.25h6.5m-3.25-3v3m0-3A3.25 3.25 0 0 1 4.75 8V1.75h6.5V8A3.25 3.25 0 0 1 8 11.25Zm-3.25-7.5h-3v2.5a2 2 0 0 0 2 2h1.01m6.49-4.5h3v2.5a2 2 0 0 1-2 2h-1.01" stroke="currentColor" stroke-width="1.5" stroke-linecap="round" stroke-linejoin="round"></path></svg></svg>